<?xml version="1.0" encoding="utf-8"?>
<!-- Generator: Adobe Illustrator 27.5.0, SVG Export Plug-In . SVG Version: 6.00 Build 0)  -->
<svg version="1.1" xmlns="http://www.w3.org/2000/svg" xmlns:xlink="http://www.w3.org/1999/xlink" x="0px" y="0px"
	 viewBox="0 0 500 500" style="enable-background:new 0 0 500 500;" xml:space="preserve">
<g id="BACKGROUND">
	<rect id="XMLID_28_" y="0" style="fill:#FFFFFF;" width="500" height="500"/>
</g>
<g id="OBJEKTS">
	<g id="XMLID_55_">
	</g>
	<g id="XMLID_122_">
	</g>
	<g>
		<defs>
			<rect id="SVGID_1_" x="27.344" y="79.228" width="445.312" height="341.544"/>
		</defs>
		<clipPath id="SVGID_00000054229314036491792240000017149702456166845586_">
			<use xlink:href="#SVGID_1_"  style="overflow:visible;"/>
		</clipPath>
		<path style="clip-path:url(#SVGID_00000054229314036491792240000017149702456166845586_);fill:#FFE8C4;" d="M451.346,295.654
			c-10.131-23.129-14.641-47.683-24.699-70.839c-7.54-17.359-19.483-33.595-36.425-42.031c-7.756-3.862-16.27-5.961-24.201-9.45
			c-27.04-11.897-44.694-38.533-69.929-53.893c-29.903-18.201-68.27-18.639-101.436-7.436
			c-52.52,17.742-96.572,55.611-114.514,108.427c-8.106,23.862-12.759,48.756-20.053,72.879
			c-6.004,19.857-13.809,39.24-17.758,59.605c-4.779,24.646-1.785,48.544,9.891,70.79c13.65,26.007,30.57,55.452,62.037,58.123
			c14.733,1.25,29.548-0.079,44.334-0.155c16.258-0.084,32.518,1.349,48.761,0.639c19.303-0.844,38.327-4.699,57.423-7.645
			c21.08-3.252,42.518-5.392,63.797-4.815c11.342,0.308,22.639,1.388,33.813,3.484c8.158,1.53,16.451,3.606,24.658,2.361
			c9.336-1.415,17.482-6.97,24.886-12.829c29.231-23.129,53.502-55.746,56.281-92.918
			C470.146,344.091,461.575,319.005,451.346,295.654z"/>
		<g style="clip-path:url(#SVGID_00000054229314036491792240000017149702456166845586_);">
			<defs>
				<path id="SVGID_00000135688541031225399710000002123250506941432216_" d="M328.575,469.854
					c-21.279-0.578-42.717,1.563-63.797,4.815c-19.096,2.946-38.12,6.802-57.423,7.645c-16.243,0.71-32.503-0.723-48.761-0.639
					c-14.785,0.076-29.601,1.405-44.334,0.155c-29.352-2.491-43.399-27.652-57.868-49.671c-16.608-25.276-16.03-60.021-8.665-89.064
					c4.979-19.633,13.905-38.134,18.305-57.905c3.944-17.721,4.16-36.057,7.076-53.976c9.251-56.839,69.763-101.715,121.548-119.209
					c33.166-11.204,71.532-10.766,101.436,7.436c25.234,15.36,42.889,41.995,69.929,53.893c7.931,3.49,16.444,5.588,24.201,9.45
					c16.942,8.436,28.885,24.671,36.425,42.031c10.058,23.156,14.568,47.71,24.699,70.839
					c10.229,23.351,18.799,48.437,16.866,74.299c-2.779,37.171-27.049,69.789-56.281,92.918
					c-7.405,5.859-15.551,11.413-24.886,12.829c-8.207,1.244-16.499-0.831-24.658-2.361
					C351.214,471.242,339.917,470.162,328.575,469.854z"/>
			</defs>
			<clipPath id="SVGID_00000134229764103761899700000013444887443790424481_">
				<use xlink:href="#SVGID_00000135688541031225399710000002123250506941432216_"  style="overflow:visible;"/>
			</clipPath>
			
				<rect x="4.879" y="389.054" style="clip-path:url(#SVGID_00000134229764103761899700000013444887443790424481_);fill:#F5D6A4;" width="576.744" height="158.8"/>
			
				<rect x="317.41" y="241.092" style="clip-path:url(#SVGID_00000134229764103761899700000013444887443790424481_);fill:#F5D6A4;" width="75.438" height="158.8"/>
			
				<rect x="-31.948" y="313.61" style="clip-path:url(#SVGID_00000134229764103761899700000013444887443790424481_);fill:#F5D6A4;" width="156.188" height="64.463"/>
			
				<rect x="99.311" y="359.49" style="clip-path:url(#SVGID_00000134229764103761899700000013444887443790424481_);fill:#F5D6A4;" width="13.131" height="41.77"/>
		</g>
		<g style="clip-path:url(#SVGID_00000054229314036491792240000017149702456166845586_);">
			<path style="fill:#F5D6A4;" d="M289.797,182.952c0,0-100.422,0-136.427,0v282.195c11.981,0.174,23.962,1.032,35.932,0.51
				c16.241-0.709,32.246-3.948,48.313-6.423c17.736-2.732,35.772-4.53,53.675-4.045c0.484,0.013,0.968,0.035,1.452,0.052V187.858
				C291.914,186.192,290.942,184.556,289.797,182.952z M279.227,338.86H171.108V190.197h108.119V338.86z"/>
			<path style="fill:#F5D6A4;" d="M427.891,373.749c2.142-6.784,3.071-13.953,2.65-21.056c-0.211-3.546-1.116-7.342-2.65-10.704
				V373.749z"/>
			<rect x="211.653" y="185.486" style="fill:#F5D6A4;" width="2.712" height="184.63"/>
			<rect x="153.37" y="226.179" style="fill:#F5D6A4;" width="132.615" height="3.326"/>
		</g>
		<g style="clip-path:url(#SVGID_00000054229314036491792240000017149702456166845586_);">
			<g>
				<g>
					<defs>
						<path id="SVGID_00000020373910698853571550000013118144079980097452_" d="M419.073,264.061h-95.899
							c-7.026,0-12.722-5.696-12.722-12.722V150.964h121.344v100.375C431.796,258.365,426.1,264.061,419.073,264.061z"/>
					</defs>
					<clipPath id="SVGID_00000079472422475445478770000004564376170894514097_">
						<use xlink:href="#SVGID_00000020373910698853571550000013118144079980097452_"  style="overflow:visible;"/>
					</clipPath>
					
						<rect x="291.188" y="143.507" style="clip-path:url(#SVGID_00000079472422475445478770000004564376170894514097_);fill:#CAA7D9;" width="168.403" height="137.332"/>
					<g id="XMLID_49_" style="clip-path:url(#SVGID_00000079472422475445478770000004564376170894514097_);">
						<g id="XMLID_51_">
							<path style="fill:#ED926E;" d="M353.985,228.408c0.127,3.991,1.702,7.962,4.932,10.18c5.52,3.79,12.327,5.699,19.014,5.253
								c8.626-0.576,31.566-11.139,22.447-22.576c-1.66-2.082-3.968-3.525-5.995-5.251c-2.59-2.207-4.633-4.648-5.645-7.924
								c-0.682-2.207-0.938-4.52-1.138-6.82c-0.288-3.319-0.699-6.806-0.529-10.138c0.113-2.213,1.863-4.609,3.375-6.275
								c1.115-1.228,2.037-2.665,2.469-4.266c0.156-0.579,0.247-1.195,0.101-1.777c-0.145-0.582-0.568-1.123-1.15-1.27
								c-0.284-0.072-0.585-0.047-0.87-0.112c-0.943-0.214-1.157-6.4-2.787-7.667c-1.381-1.073-3.261-1.176-5.01-1.179
								c-4.971-0.008-9.955,0.43-14.905-0.033c-3.799-0.355-7.717-1.226-11.355-0.076c1.105-0.35-0.21,5.192-0.28,5.665
								c-0.686,4.624-0.854,9.325-0.501,13.986c0.448,5.915,2.856,12.304,9.762,12.561c0.852,0.032,0.003,9.644-0.301,10.59
								c-0.72,2.245-2.119,5.632-4.557,6.438c-0.817,0.27-1.706,0.264-2.524,0.53c-1.757,0.573-2.883,2.293-3.55,4.016
								C354.262,224.142,353.917,226.278,353.985,228.408z"/>
						</g>
						<path style="fill:#E86A64;" d="M370.235,186.265c-0.015,0.01-0.03,0.02-0.045,0.031c-0.318,0.221-0.583,0.548-0.641,0.931
							c-0.06,0.398,0.11,0.8,0.351,1.123c1.198,1.611,4.362,1.715,5.771,0.364c0.474-0.454,0.819-1.148,0.589-1.763
							c-0.119-0.319-0.375-0.569-0.653-0.767C374.243,185.21,371.606,185.348,370.235,186.265z"/>
						<path style="fill:#E86A64;" d="M360.292,186.003c-0.18-0.435-0.572-0.755-1.001-0.95c-0.917-0.418-2.139-0.498-3.214-0.248
							c0.059,0.877-0.023,1.789,0.072,2.643c0.04,0.361,0.083,0.72,0.125,1.079c0.542,0.092,1.113,0.071,1.654-0.048
							C359.026,188.236,360.894,187.463,360.292,186.003z"/>
					</g>
					<path style="clip-path:url(#SVGID_00000079472422475445478770000004564376170894514097_);fill:#FFFFFF;" d="M357.414,164.029
						c-3.446,0.201-7.121,0.878-7.485,3.158c-0.568,3.556,4.96,6.842,7.814,6.872c1.813,0.019,3.589-0.482,5.394-0.651
						c1.075-0.101,2.194-0.071,3.234,0.246c0.987,0.301,1.569,0.973,2.427,1.437c0.544,0.294,1.107,0.562,1.706,0.717
						c0.725,0.188,1.484,0.205,2.232,0.159c3.027-0.186,7.335-2.125,10.17-0.312c2.651,1.695,3.901,7.424,3.992,10.406
						c0.206,6.71-5.124,17.341,2.766,21.629c6.933,3.768,16.279-0.423,19.4-7.195c3.964-8.602-4.572-11.592-7.539-18.251
						c-0.914-2.052-1.376-4.283-2.285-6.338c-2.755-6.224-9.33-10.036-15.992-11.433c-6.662-1.396-13.554-0.785-20.357-0.541
						C361.822,163.97,359.667,163.898,357.414,164.029z"/>
					<g id="XMLID_42_" style="clip-path:url(#SVGID_00000079472422475445478770000004564376170894514097_);">
						<g id="XMLID_43_">
							<g id="XMLID_46_">
								<path style="fill:#589AD1;" d="M316.736,288.856c0.566,10.393,8.215,27.117,18.085,32.112
									c5.942,3.007,12.795,4.15,19.305,5.195c12.951,2.079,26.508,4.116,38.943-0.057c8.823-2.96,16.341-8.827,23.43-14.857
									c5.179-4.406,10.346-9.1,13.475-15.137c2.603-5.021,3.645-10.693,4.38-16.3c1.282-9.779,1.716-19.824-0.576-29.417
									c-2.292-9.593-7.566-18.761-15.804-24.184c-6.065-3.993-13.385-5.785-19.372-9.893c-3.076,1.503-4.341,10.079-6.228,13.056
									c-2.613,4.122-6.292,7.427-11.007,8.908c-8.66,2.72-18.259-1.65-19.545-11.15c-0.226-1.671-0.252-3.368-0.082-5.049
									c0.219-2.153,1.451-3.521-0.596-4.358c-1.137-0.465-4.958,1.466-6.095,1.903c-3.99,1.535-7.774,3.589-11.276,6.036
									c-4.374,3.057-8.31,6.735-11.703,10.859c-2.076,2.523-3.948,5.213-5.591,8.029
									C318.747,257.8,315.902,273.542,316.736,288.856z"/>
							</g>
						</g>
					</g>
					<path style="clip-path:url(#SVGID_00000079472422475445478770000004564376170894514097_);fill:#FFFFFF;" d="M358.986,191.473
						c2.056,4.61,5.791,4.824,8.202,0.471"/>
					
						<path style="clip-path:url(#SVGID_00000079472422475445478770000004564376170894514097_);fill:none;stroke:#142152;stroke-miterlimit:10;" d="
						M378.102,181.592c-0.105,2.981-2.607,5.313-5.588,5.208c-2.981-0.105-5.313-2.607-5.209-5.588
						c0.105-2.981,2.607-5.313,5.588-5.209C375.875,176.109,378.207,178.611,378.102,181.592z"/>
					
						<path style="clip-path:url(#SVGID_00000079472422475445478770000004564376170894514097_);fill:none;stroke:#E06B48;stroke-miterlimit:10;" d="
						M364.209,178.584c0.015-0.064,0.024-0.13,0.029-0.195c-0.084,2.341-0.01,4.988-0.536,7.218
						c-0.786,0.294-1.781,1.184-1.359,2.209c0.385,0.936,1.746,0.899,2.493,0.501"/>
					
						<path style="clip-path:url(#SVGID_00000079472422475445478770000004564376170894514097_);fill:none;stroke:#142152;stroke-miterlimit:10;" d="
						M361.729,181.017c-0.105,2.981-2.607,5.313-5.588,5.209c-2.981-0.105-5.313-2.607-5.208-5.588
						c0.105-2.981,2.607-5.313,5.588-5.208C359.501,175.534,361.833,178.036,361.729,181.017z"/>
					
						<line style="clip-path:url(#SVGID_00000079472422475445478770000004564376170894514097_);fill:none;stroke:#142152;stroke-miterlimit:10;" x1="361.717" y1="181.342" x2="367.294" y2="181.538"/>
					
						<line style="clip-path:url(#SVGID_00000079472422475445478770000004564376170894514097_);fill:none;stroke:#142152;stroke-miterlimit:10;" x1="377.758" y1="181.891" x2="388.068" y2="178.811"/>
					<path style="clip-path:url(#SVGID_00000079472422475445478770000004564376170894514097_);fill:#142152;" d="M373.058,181.917
						c-0.052,0.63-0.605,1.098-1.234,1.046s-1.098-0.605-1.046-1.234c0.052-0.63,0.605-1.098,1.234-1.046
						C372.641,180.734,373.11,181.287,373.058,181.917z"/>
					<path style="clip-path:url(#SVGID_00000079472422475445478770000004564376170894514097_);fill:#142152;" d="M358.468,181.005
						c-0.052,0.63-0.605,1.098-1.234,1.046c-0.63-0.052-1.098-0.605-1.046-1.234c0.052-0.63,0.605-1.098,1.234-1.046
						C358.052,179.822,358.52,180.375,358.468,181.005z"/>
					<path style="clip-path:url(#SVGID_00000079472422475445478770000004564376170894514097_);fill:#ED926E;" d="M384.538,182.306
						c0.037-1.352,0.397-2.746,1.298-3.755c0.901-1.008,2.419-1.53,3.665-1.005c0.676,0.285,1.207,0.834,1.633,1.43
						c0.418,0.586,0.762,1.263,0.76,1.982c-0.002,0.953-0.604,1.802-1.29,2.463c-0.767,0.74-1.701,1.349-2.75,1.536
						c-1.049,0.187-2.22-0.107-2.914-0.915c-0.695-0.808-0.764-2.149-0.02-2.911"/>
					
						<path style="clip-path:url(#SVGID_00000079472422475445478770000004564376170894514097_);fill:none;stroke:#142152;stroke-width:0.5;stroke-miterlimit:10;" d="
						M366.571,200.711c2.029,0.075,4.073-0.82,5.395-2.362"/>
					
						<path style="clip-path:url(#SVGID_00000079472422475445478770000004564376170894514097_);fill:none;stroke:#142152;stroke-width:0.5;stroke-miterlimit:10;" d="
						M387.229,180.385c-0.188-0.348,0.357-0.678,0.735-0.563c0.767,0.233,1.021,1.283,0.676,2.006
						c-0.345,0.723-1.085,1.168-1.812,1.504"/>
					
						<path style="clip-path:url(#SVGID_00000079472422475445478770000004564376170894514097_);fill:none;stroke:#142152;stroke-width:0.5;stroke-miterlimit:10;" d="
						M373.295,239.206c-1.089,11.392-2.179,22.783-3.268,34.175c-0.221,2.316-0.39,4.85,0.933,6.763"/>
					<path style="clip-path:url(#SVGID_00000079472422475445478770000004564376170894514097_);fill:#142152;" d="M369.07,245.492
						c-0.06-0.186-0.164-0.347-0.31-0.483c-0.136-0.146-0.297-0.25-0.483-0.31c-0.179-0.094-0.371-0.137-0.578-0.129
						c-0.133,0.018-0.266,0.036-0.399,0.054c-0.254,0.071-0.475,0.2-0.662,0.386c-0.078,0.101-0.156,0.202-0.234,0.304
						c-0.136,0.234-0.204,0.486-0.205,0.757v0.188c-0.008,0.206,0.035,0.399,0.129,0.578c0.06,0.186,0.164,0.347,0.31,0.483
						c0.136,0.146,0.297,0.25,0.483,0.31c0.179,0.094,0.371,0.137,0.578,0.129c0.133-0.018,0.266-0.036,0.399-0.054
						c0.254-0.071,0.475-0.2,0.662-0.386l0.234-0.304c0.136-0.234,0.204-0.486,0.205-0.757v-0.188
						C369.207,245.863,369.164,245.671,369.07,245.492z"/>
					<path style="clip-path:url(#SVGID_00000079472422475445478770000004564376170894514097_);fill:#142152;" d="M365.822,256.396
						c-1.93,0-1.934,3,0,3C367.753,259.396,367.756,256.396,365.822,256.396z"/>
				</g>
				<g>
					<path style="fill:#142152;" d="M431.875,150.964H310.452v-5.765c0-3.33,2.7-6.03,6.03-6.03h109.363c3.33,0,6.03,2.7,6.03,6.03
						V150.964z"/>
					<path style="fill:#6AA65E;" d="M321.05,145.658c0,1.777-1.441,3.218-3.218,3.218s-3.217-1.441-3.217-3.218
						c0-1.777,1.44-3.217,3.217-3.217S321.05,143.881,321.05,145.658z"/>
					<g>
						<defs>
							<path id="SVGID_00000171715395695174360890000005054154282638764713_" d="M332.921,145.517
								c0.078,1.775-1.298,3.278-3.073,3.356c-1.775,0.078-3.278-1.298-3.356-3.073c-0.078-1.775,1.298-3.278,3.073-3.356
								C331.34,142.366,332.842,143.742,332.921,145.517z"/>
						</defs>
						<clipPath id="SVGID_00000119091417049751560670000011827983061741311879_">
							<use xlink:href="#SVGID_00000171715395695174360890000005054154282638764713_"  style="overflow:visible;"/>
						</clipPath>
						<path style="clip-path:url(#SVGID_00000119091417049751560670000011827983061741311879_);fill:#E3324F;" d="M332.921,145.517
							c0.078,1.775-1.298,3.278-3.073,3.356c-1.775,0.078-3.278-1.298-3.356-3.073c-0.078-1.775,1.298-3.278,3.073-3.356
							C331.34,142.366,332.842,143.742,332.921,145.517z"/>
						<g style="clip-path:url(#SVGID_00000119091417049751560670000011827983061741311879_);">
							
								<line style="fill:none;stroke:#FFFFFF;stroke-width:0.5;stroke-miterlimit:10;" x1="325.96" y1="141.743" x2="333.452" y2="149.574"/>
							
								<line style="fill:none;stroke:#FFFFFF;stroke-width:0.5;stroke-miterlimit:10;" x1="325.79" y1="149.405" x2="333.622" y2="141.912"/>
						</g>
					</g>
				</g>
			</g>
			<path style="fill:#ED926E;" d="M329.476,269.655c-2.346,0.113-4.285,1.46-6.496,2.04c-1.702,0.446-3.741,0.153-5.43-0.284
				c-1.175-0.304-2.326-0.702-3.438-1.189c-0.72-0.315-1.428-0.669-2.19-0.861c-1.064-0.268-2.215-0.214-3.213-0.672
				c-0.299-0.137-0.598-0.344-0.692-0.659c-0.142-0.473,0.263-0.965,0.732-1.121c0.469-0.156,0.978-0.079,1.471-0.045
				c0.499,0.034,1.172-0.138,1.165-0.639c-0.001-0.124-0.05-0.242-0.105-0.352c-0.531-1.067-1.646-1.685-2.593-2.409
				c-1.586-1.215-2.539-3.294,0.137-3.496c2.397-0.181,4.844,0.372,6.931,1.565c0.587,0.336,1.154,0.725,1.8,0.926
				c1.078,0.336,2.248,0.112,3.331-0.207c1.438-0.424,2.702-1.06,3.995-1.8c1.129-0.646,2.647-0.965,3.489-2.02
				c0.978-1.225,1.059-2.943,0.829-4.493c-0.231-1.551-0.727-3.07-0.744-4.637c-0.017-1.55,0.452-3.101,1.325-4.382
				c0.163-0.24,0.349-0.478,0.608-0.608c0.561-0.282,1.277,0.065,1.603,0.602c0.716,1.177-0.211,2.281-0.129,3.525
				c0.113,1.71,1.2,3.332,2.237,4.628c1.457,1.821,3.191,3.624,3.538,5.93c0.167,1.107,0.005,2.302,0.526,3.293
				c0.256,0.486,0.656,0.878,1.05,1.261c1.993,1.938,3.864,3.772,6.188,5.272c1.245,0.804,2.507,1.622,3.487,2.734
				c0.979,1.112,1.656,2.577,1.499,4.051c-0.12,1.129-0.706,2.148-1.294,3.118c-1.075,1.772-3.097,3.142-5.026,3.917
				c-3.571,1.434-5.905-3.104-7.835-5.534c-1.689-2.128-2.927-4.536-4.514-6.68c-0.406-0.548-1.133-0.761-1.814-0.778
				C329.763,269.646,329.62,269.648,329.476,269.655z"/>
			<path style="fill:#589AD1;" d="M426.065,236.103c-2.313-4.391-8.114-6.046-12.931-4.851c-4.817,1.194-8.763,4.625-12.061,8.335
				c-5.97,6.718-11.476,13.87-16.445,21.358c-4.56,6.87-8.151,18.145-13.916,23.315c-7.529-4.453-14.483-10.778-20.864-17.293
				c-2.845,3.136-5.925,6.056-8.94,9.038c-1.839,1.819-3.661,3.679-5.364,5.634c2.125,3.214,4.407,6.343,6.607,9.31
				c8.461,11.411,18.898,20.84,32.643,25.256c12.91,4.148,26.04-19.951,32.174-28.27c9.675-13.123,19.086-27.518,20.253-43.78
				C427.418,241.414,427.346,238.534,426.065,236.103z"/>
			<path style="fill:none;stroke:#142152;stroke-width:0.5;stroke-miterlimit:10;" d="M401.094,238.702
				c-7.409,7.59-15.038,15.53-18.486,25.56"/>
			<path style="fill:none;stroke:#142152;stroke-width:0.5;stroke-miterlimit:10;" d="M427.825,254.176
				c-2.401,4.098-4.802,8.195-7.203,12.293"/>
		</g>
		<g style="clip-path:url(#SVGID_00000054229314036491792240000017149702456166845586_);">
			<path style="fill:#FF9575;" d="M247.611,211.014c1.596-1.929,3.227-3.741,4.683-5.356c0.697-0.773,1.425-1.546,2.339-2.043
				c0.937-0.51,2.012-0.7,3.072-0.82c4.965-0.566,10.08,0.244,14.628,2.316c1.043,0.475,2.199,1.235,2.206,2.381
				c0.005,0.936-0.773,1.664-1.49,2.266c-6.231,5.228-13.61,8.929-18.943,15.134c-2.013,2.351-3.917,5.039-6.797,6.171
				c-6.19,2.434-8.408-4.124-6.996-8.294C241.66,218.785,244.573,214.686,247.611,211.014z"/>
			<g>
				<g>
					<defs>
						<path id="SVGID_00000008132648211967782340000008986286053827712926_" d="M181.656,116.232H71.168
							c-2.556,0-4.629,2.072-4.629,4.629v9.763h0.068c-0.015,0.229-0.035,0.457-0.035,0.689v85.308v16.214v10.634
							c0,5.971,4.368,10.909,10.08,11.828c0.625,0.1,1.261,0.167,1.915,0.167h61.792h33.931c6.624,0,11.994-5.37,11.994-11.995
							V130.623v-9.733v-0.029C186.284,118.304,184.212,116.232,181.656,116.232z"/>
					</defs>
					<clipPath id="SVGID_00000044136848570437781000000014401166510853890719_">
						<use xlink:href="#SVGID_00000008132648211967782340000008986286053827712926_"  style="overflow:visible;"/>
					</clipPath>
					<g style="clip-path:url(#SVGID_00000044136848570437781000000014401166510853890719_);">
						<g>
							<defs>
								<path id="SVGID_00000135672348813980339380000005721994490693965444_" d="M171.042,284.346H82.198
									c-8.63,0-15.626-6.996-15.626-15.626V120.89h120.096v147.83C186.668,277.35,179.672,284.346,171.042,284.346z"/>
							</defs>
							<clipPath id="SVGID_00000159471218042941701190000003678783427845791894_">
								<use xlink:href="#SVGID_00000135672348813980339380000005721994490693965444_"  style="overflow:visible;"/>
							</clipPath>
							<path style="clip-path:url(#SVGID_00000159471218042941701190000003678783427845791894_);fill:#589AD1;" d="M195.698,284.346
								H80.15c-7.499,0-13.578-6.079-13.578-13.578V134.468c0-7.499,6.079-13.578,13.578-13.578h115.548
								c7.499,0,13.578,6.079,13.578,13.578v136.299C209.276,278.267,203.197,284.346,195.698,284.346z"/>
							<path style="clip-path:url(#SVGID_00000159471218042941701190000003678783427845791894_);fill:#CAA7D9;" d="M53.985,229.991
								c4.467-13.531,12.881-26.325,25.425-33.084c13.922-7.501,30.704-6.648,46.435-5.031c14.519,1.493,29.908,3.867,40.905,13.463
								c5.552,4.844,10.382,11.498,15.091,17.159c4.753,5.714,9.543,11.484,12.985,18.072c3.442,6.588,5.475,14.146,4.324,21.489
								c-1.479,9.429-7.41,22.301-15.205,28.069c0.391-4.767,0.77-9.668-0.621-14.244c-1.72-5.656-5.941-10.168-10.238-14.228
								c-1.436-1.356-3.254-2.789-5.172-2.32c0.424,9.132,0.915,18.262,1.473,27.387c0.172,2.817,0.347,5.683-0.31,8.429
								c-1.45,6.058-10.707,9.996-15.884,12.693c-13.823,7.201-29.453,10.279-44.988,11.542c-7.181,0.584-14.587,0.772-21.394-1.589
								c-6.336-2.198-11.729-6.458-16.754-10.899c-8.894-7.858-22.664-20.336-23.483-33.058
								C45.725,260.717,49.867,242.464,53.985,229.991z"/>
							<path style="clip-path:url(#SVGID_00000159471218042941701190000003678783427845791894_);fill:#110809;" d="M134.87,553.743
								c0.191,0.314,0.421,0.611,0.698,0.885c3.711,3.677,11.336,2.895,16.427,2.917c7.195,0.03,14.431,0.058,21.619-1.128
								c2.262-0.373,4.708-0.977,6.238-2.755c3.46-4.021-2.062-7.385-5.182-8.183c-3.203-0.82-6.571-1.034-9.85-1.592
								c-3.278-0.558-6.563-1.51-9.057-3.579c-2.017-1.673-3.425-4.043-3.956-6.658c-0.56-2.761-0.293-6.034-2.305-7.93
								c-1.78-1.676-5.428-1.752-7.668-0.539c-2.777,1.503-4.692,4.315-5.747,7.179c-1.658,4.503-1.28,9.641-1.789,14.299
								C134.037,549.061,133.667,551.761,134.87,553.743z"/>
							<path style="clip-path:url(#SVGID_00000159471218042941701190000003678783427845791894_);fill:#110809;" d="M48.329,562.397
								c0.191,0.314,0.421,0.611,0.698,0.885c3.711,3.677,11.336,2.895,16.427,2.917c7.195,0.03,14.431,0.058,21.619-1.128
								c2.262-0.373,4.708-0.977,6.239-2.756c3.46-4.021-2.063-7.384-5.182-8.183c-3.203-0.82-6.571-1.034-9.849-1.592
								c-3.278-0.558-6.563-1.51-9.058-3.579c-2.017-1.673-3.424-4.043-3.955-6.658c-0.56-2.761-0.293-6.034-2.306-7.93
								c-1.78-1.677-5.427-1.752-7.668-0.539c-2.777,1.504-4.692,4.315-5.747,7.179c-1.658,4.502-1.28,9.641-1.789,14.299
								C47.496,557.715,47.126,560.415,48.329,562.397z"/>
							
								<path style="opacity:0.6;clip-path:url(#SVGID_00000159471218042941701190000003678783427845791894_);fill:none;stroke:#051433;stroke-miterlimit:10;" d="
								M102.667,318.758c-4.16-2.309-16.31-10.104-16.315-10.105c-0.572-0.192-8.136,11.735-9.084,17.546
								c-0.394,2.412-0.108,5.078,1.495,6.923c0.935,1.077,2.238,1.8,3.614,2.173c3.027,0.822,6.333-0.023,8.976-1.71
								C95.127,331.174,100.658,322.691,102.667,318.758"/>
							<polygon style="clip-path:url(#SVGID_00000159471218042941701190000003678783427845791894_);fill:#FFFFFF;" points="
								134.39,191.686 142.151,194.238 134.481,230.131 120.778,213.417 							"/>
							<g style="clip-path:url(#SVGID_00000159471218042941701190000003678783427845791894_);">
								<path style="fill:#FF9575;" d="M158.701,159.145c-0.099-3.877-0.363-7.84-1.478-11.576c-0.609-2.04-2.804-8.518-5.477-8.544
									c-1.256-0.012-2.355,0.839-3.193,1.774s-1.551,2.013-2.589,2.721c-1.75,1.193-4.086,1.098-6.131,0.549
									c-2.045-0.55-3.977-1.501-6.057-1.903c-2.645-0.511-5.372-0.104-8.035,0.303c-8.509,1.301-7.797,16.072-6.924,22.201
									c0.148,1.043,0.328,2.111,0.104,3.141c-0.215,0.984-0.781,1.848-1.337,2.688c-3.464,5.231-6.926,10.462-10.39,15.694
									c-2.142,3.236-8.487,8.793-6.039,12.536c4.241,6.479,10.562,11.574,17.795,14.341c0.586,0.224,1.207,0.437,1.828,0.348
									c0.68-0.098,1.254-0.54,1.785-0.976c3.27-2.676,8.64-6.666,10.404-10.608c0.698-1.561,0.485-2.913,1.152-4.664
									c0.822-2.161,2.17-4.2,3.304-6.207c0.995-1.761,2.037-3.496,3.091-5.222c0.306-0.502,0.928-2.094,1.456-2.331
									c0.51-0.229,1.499,0.303,2.108,0.382c2.529,0.328,5.199-0.404,7.309-1.875C158.367,177.053,158.897,166.804,158.701,159.145
									z"/>
								<path style="fill:#151A36;" d="M159.821,143.786c0.51-0.74,0.969-1.575,1.371-2.521c0.677-1.594,1.023-3.561,0.008-4.964
									c-0.663-0.917-1.784-1.396-2.893-1.621c-2.42-0.489-5.034,0.08-7.032,1.53c-1.105,0.803-2.045,1.869-3.301,2.406
									c-3.792,1.621-8.067-2.284-12.065-1.275c-1.019,0.257-1.935,0.822-2.938,1.135c-1.896,0.593-3.953,0.253-5.916,0.554
									c-4.58,0.701-7.435,4.857-8.317,9.128c-0.771,3.732-0.603,7.587-0.959,11.381c-0.184,1.956-0.508,3.899-0.969,5.808
									c-0.376,1.557-0.695,3.652,0.552,4.914c1.03,1.043,2.675,1.153,4.128,0.958c3.753-0.505,7.112-2.374,8.55-6.019
									c0.783-1.984,0.627-3.972,1.6-5.941c1.09-2.205,2.765-4.125,4.827-5.471C143.949,148.902,154.555,151.427,159.821,143.786z"
									/>
								<path style="fill:#FF9575;" d="M136.269,165.446c0.244-0.802,0.329-1.675,0.252-2.588c-0.451-5.274-6.805-5.436-9.615-1.884
									c-1.98,2.503-2.027,6.61,1.085,8.214c1.549,0.798,3.474,0.725,5.041-0.038C134.693,168.341,135.788,167.03,136.269,165.446z
									"/>
								<path style="fill:none;stroke:#142152;stroke-miterlimit:10;" d="M151.121,157.068c0.067,1.654,0.116,3.308,0.174,4.962
									c0.03,0.854,0.063,1.707,0.1,2.561c0.045,1.032,0.342,0.818,1.166,1.326c0.375,0.231,0.732,0.539,0.875,0.956
									c0.136,0.395,0.049,0.859-0.219,1.179c-0.269,0.32-0.711,0.485-1.124,0.419"/>
								<path style="fill:#142152;" d="M145.729,160.212c0.628,0.249,1.001,0.921,0.844,1.585c-0.095,0.398-0.43,0.837-0.855,0.89
									c-0.25,0.031-0.503-0.036-0.739-0.124c-0.735-0.275-1.175-0.932-0.854-1.708
									C144.391,160.212,145.096,159.961,145.729,160.212z"/>
								<path style="fill:#142152;" d="M157.021,159.493c0.392,0.117,0.628,0.436,0.699,0.794c0.002,0.008,0.003,0.016,0.004,0.024
									c0.049,0.281,0.001,0.584-0.169,0.836c-0.068,0.1-0.149,0.167-0.236,0.216c-0.134,0.139-0.304,0.248-0.529,0.26
									c-0.645,0.036-1.2-0.533-1.158-1.172C155.676,159.787,156.388,159.304,157.021,159.493z"/>
								<path style="fill:none;stroke:#142152;stroke-miterlimit:10;" d="M159.249,156.06c-0.695-0.518-1.618-0.664-2.477-0.548
									s-1.668,0.473-2.433,0.88"/>
								<path style="fill:none;stroke:#142152;stroke-miterlimit:10;" d="M140.31,158.237c0.865-0.838,2.013-1.35,3.198-1.563
									c1.185-0.213,2.408-0.139,3.591,0.085"/>
								<path style="fill:none;stroke:#142152;stroke-width:0.5;stroke-miterlimit:10;" d="M142.08,183.756
									c-1.464,0.395-3.053-0.209-4.205-1.194c-1.153-0.986-1.952-2.311-2.731-3.612"/>
							</g>
							<path style="clip-path:url(#SVGID_00000159471218042941701190000003678783427845791894_);fill:#FFFFFF;" d="M92.665,192.198
								c1.123-0.22,12.251-2.543,12.251-2.543s15.461,21.349,15.862,23.762c0.402,2.413-9.255,18.152-9.255,18.152L92.665,192.198z"
								/>
							<path style="clip-path:url(#SVGID_00000159471218042941701190000003678783427845791894_);fill:#FFFFFF;" d="M134.481,230.131
								c-2.593-3.162-5.185-6.325-7.778-9.487c-1.496-1.825-3.671-3.76-4.789-5.841c-0.24-0.447-1.164-1.013-1.082-1.574
								c0.133-0.913,5.149-3.142,6.047-4.081c3.049-3.187,4.735-7.918,7.129-11.607c0.315-0.486,0.708-1.021,1.284-1.077
								c0.813-0.08,1.367,0.856,1.408,1.672c0.119,2.375,0.581,4.685,0.402,7.097c-0.434,5.817-0.867,11.633-1.301,17.45"/>
						</g>
						<g>
							<path style="fill:#142152;" d="M186.284,130.623H66.539v-8.361c0-3.33,2.7-6.03,6.03-6.03h107.685c3.33,0,6.03,2.7,6.03,6.03
								V130.623z"/>
							<path style="fill:#6AA65E;" d="M77.862,124.15c0,2.168-1.746,3.926-3.901,3.926c-2.154,0-3.901-1.757-3.901-3.926
								c0-2.168,1.746-3.926,3.901-3.926C76.116,120.225,77.862,121.982,77.862,124.15z"/>
							<g>
								<defs>
									<path id="SVGID_00000088824476419505103920000010818421013812910246_" d="M92.253,123.978
										c0.095,2.166-1.574,3.999-3.726,4.094c-2.152,0.095-3.974-1.584-4.068-3.75c-0.095-2.166,1.573-3.999,3.726-4.094
										C90.337,120.133,92.158,121.812,92.253,123.978z"/>
								</defs>
								<clipPath id="SVGID_00000175287899367141185730000011129719607817704329_">
									<use xlink:href="#SVGID_00000088824476419505103920000010818421013812910246_"  style="overflow:visible;"/>
								</clipPath>
								<path style="clip-path:url(#SVGID_00000175287899367141185730000011129719607817704329_);fill:#E3324F;" d="M92.253,123.978
									c0.095,2.166-1.574,3.999-3.726,4.094c-2.152,0.095-3.974-1.584-4.068-3.75c-0.095-2.166,1.573-3.999,3.726-4.094
									C90.337,120.133,92.158,121.812,92.253,123.978z"/>
								<g style="clip-path:url(#SVGID_00000175287899367141185730000011129719607817704329_);">
									
										<line style="fill:none;stroke:#FFFFFF;stroke-width:0.5;stroke-miterlimit:10;" x1="83.814" y1="119.373" x2="92.897" y2="128.928"/>
									
										<line style="fill:none;stroke:#FFFFFF;stroke-width:0.5;stroke-miterlimit:10;" x1="83.609" y1="128.721" x2="93.103" y2="119.58"/>
								</g>
							</g>
						</g>
					</g>
					
						<path style="clip-path:url(#SVGID_00000044136848570437781000000014401166510853890719_);fill:none;stroke:#202752;stroke-miterlimit:10;" d="
						M91.946,222.157c2.364,12.278,4.728,24.556,7.092,36.833c0.577,2.999,1.167,6.036,2.484,8.792
						c3.359,7.03,10.824,11.08,18.108,13.846c7.284,2.766,15.07,4.836,21.108,9.761c0.569-0.509,0.764-1.394,0.461-2.095"/>
					
						<path style="clip-path:url(#SVGID_00000044136848570437781000000014401166510853890719_);fill:none;stroke:#202752;stroke-miterlimit:10;" d="
						M151.704,234.843c4.819,8.486,11.675,15.527,17.267,23.473"/>
				</g>
				<path style="fill:none;stroke:#142152;stroke-width:0.5;stroke-miterlimit:10;" d="M147.476,171.923
					c1.53,1.935,4.629,2.38,6.642,0.954"/>
			</g>
			<path style="fill:#CAA7D9;" d="M151.017,237.567c1.289,2.262,3.489,4.088,6.213,6.099c12.428,9.177,17.074,23.075,32.08,29.345
				c2.72,1.136,5.639,2.131,8.562,1.744c2.918-0.387,5.465-2.099,7.893-3.763c8.503-5.829,17.516-9.839,25.629-16.396
				c2.228-1.801,24.4-21.756,22.843-23.463c-5.124-5.619-9.821-11.628-14.036-17.957c-8.255,7.203-17.118,13.708-26.46,19.432
				c-4.009,2.456-9.258,6.648-13.854,7.737c-4.601,1.09-4.24,0.167-6.981-3.62c-6.542-9.038-14.036-17.894-21.787-25.93
				c-1.52-1.576-3.158-3.208-5.274-3.77c-4.014-1.067-7.96,2.136-10.114,5.688c-2.773,4.572-4.525,11.574-5.623,16.83
				C149.4,232.943,149.809,235.447,151.017,237.567z"/>
			<g>
				<path style="fill:#589AD1;" d="M247.273,202.892l27.164,22.038c1.405,1.139,3.467,0.925,4.607-0.48l12.957-15.971
					l-32.251-26.165l-12.957,15.971C245.653,199.69,245.868,201.752,247.273,202.892z"/>
				<polyline style="fill:none;stroke:#151A36;stroke-width:0.5;stroke-miterlimit:10;" points="259.716,181.944 268.873,204.601 
					292.21,208.521 				"/>
				<path style="fill:none;stroke:#151A36;stroke-width:0.5;stroke-miterlimit:10;" d="M253.143,197.343
					c2.073,1.755,4.147,3.51,6.22,5.265"/>
				<path style="fill:none;stroke:#151A36;stroke-width:0.5;stroke-miterlimit:10;" d="M251.679,199.053
					c2.086,1.869,4.173,3.738,6.259,5.608"/>
				<path style="fill:#202752;" d="M273.009,218.229c0.482,1.499,2.087,2.324,3.586,1.842c1.499-0.482,2.323-2.087,1.842-3.586
					c-0.482-1.499-2.087-2.323-3.586-1.842C273.352,215.125,272.528,216.73,273.009,218.229z"/>
			</g>
			<path style="fill:#FF9575;" d="M256.047,214.812c5.249-1.816,10.668-3.142,16.162-3.956c0.797,0.641,0.582,1.992-0.145,2.713
				s-1.769,0.991-2.746,1.294c-3.319,1.029-6.423,2.746-9.059,5.012c-1.694,1.456-3.431,3.239-5.663,3.301"/>
		</g>
		<g style="clip-path:url(#SVGID_00000054229314036491792240000017149702456166845586_);">
			<g>
				<g>
					<path style="fill:#FF735F;" d="M390.365,371.957c0.575-0.065,1.056-0.5,1.33-1.009c0.275-0.509,0.379-1.091,0.479-1.661
						c0.348-1.981,0.056-4.101,0.977-5.961c0.487-0.982,1.432-1.815,2.529-1.846c1.149-0.032,2.16,0.809,2.769,1.785
						c0.609,0.976,0.928,2.102,1.44,3.131c0.512,1.03,1.302,2.02,2.413,2.317c0.688,0.184,2.547,0.176,3.021-0.497
						c0.951-1.374,1.11-3.134,1.139-4.805c0.073-4.131-0.215-8.655,2.036-12.334c1.322-2.16,4.198-3.09,6.437-1.637
						c1.478,0.959,2.279,2.695,2.643,4.419c0.556,2.631,0.596,5.375,1.035,8.031c0.303,1.841,0.946,5.041,3.288,5.219
						c4.59,0.349,4-8.515,3.85-11.21c-0.237-4.265-1.031-9.144,1.018-13.101c0.499-0.964,1.189-1.86,2.125-2.411
						c2.547-1.5,5.472,0.237,6.591,2.661c1.497,3.245,1.126,7.553,1.296,11.056c0.188,3.885,0.431,7.862,2.045,11.462
						c0.999,2.227,2.617,4.263,4.826,5.302c0.493,0.232,1.099,0.538,1.094,1.082"/>
				</g>
			</g>
			<polyline style="fill:none;stroke:#110809;stroke-width:0.5;stroke-miterlimit:10;" points="457.01,371.982 390.111,371.982 
				390.111,339.142 			"/>
			<polyline style="fill:none;stroke:#110809;stroke-width:0.5;stroke-miterlimit:10;" points="454.105,369.129 457.051,371.61 
				454.26,374.246 			"/>
			<polyline style="fill:none;stroke:#110809;stroke-width:0.5;stroke-miterlimit:10;" points="387.731,341.683 390.212,338.737 
				392.848,341.528 			"/>
		</g>
		
			<polyline style="clip-path:url(#SVGID_00000054229314036491792240000017149702456166845586_);fill:none;stroke:#110809;stroke-width:0.5;stroke-miterlimit:10;" points="
			105.508,382.978 112.441,389.33 105.508,395.249 112.441,401.26 105.508,407.411 		"/>
		<g style="clip-path:url(#SVGID_00000054229314036491792240000017149702456166845586_);">
			<path style="fill:none;stroke:#110809;stroke-width:0.5;stroke-miterlimit:10;" d="M455.925,334.798l4.147-0.966
				c0.04-0.009,0.071,0.034,0.049,0.069l-12.802,20.135l-6.626-10.914l-7.795,11.108l-10.524-14.811l-10.914,15.98l-8.77-9.16
				l-8.38,9.16"/>
			
				<line style="fill:none;stroke:#110809;stroke-width:0.5;stroke-miterlimit:10;" x1="460.51" y1="337.958" x2="460.072" y2="333.832"/>
		</g>
		<g style="clip-path:url(#SVGID_00000054229314036491792240000017149702456166845586_);">
			<path style="fill:none;stroke:#151A36;stroke-miterlimit:10;" d="M231.763,268.343c0.047-4.941,1.463-9.863,4.05-14.073"/>
			<path style="fill:#151A36;" d="M231.874,268.161c0,1.447-0.913,2.621-2.04,2.621c-1.127,0-2.04-1.173-2.04-2.621
				c0-1.447,0.913-2.621,2.04-2.621C230.961,265.54,231.874,266.714,231.874,268.161z"/>
			
				<line style="fill:none;stroke:#FFFFFF;stroke-width:5;stroke-miterlimit:10;" x1="252.721" y1="457.18" x2="252.721" y2="517.003"/>
			<path style="fill:#FF735F;" d="M156.763,277.755c1.009,2.626,2.426,5.23,4.115,8.101c6.861,11.663,10.868,23.706,15.076,36.346
				c3.053-3.505,7.205-6.04,11.718-7.154c2.032-0.502,4.121-0.721,6.202-0.939c5.047-0.528,10.094-1.057,15.141-1.585
				c1.024-0.107,2.109-0.204,3.036,0.241c1.103,0.53,1.73,1.705,2.201,2.835c2.995,7.19,1.119,13.262,0.646,20.58
				c-0.271,4.187-0.672,7.555-3.738,10.845c-1.104,1.185-2.576,2.065-4.217,2.75c-3.319,1.384-7.328,1.968-10.385,2.66
				c-5.983,1.354-12.049,2.297-18.107,3.241c-4.925,0.767-10.246,1.058-14.439-2.193c-3.688-2.859-5.635-7.383-7.168-11.79
				c-2.876-8.267-4.843-17.118-6.896-25.67c-1.26-5.251-2.054-10.908-2.769-16.221c-0.833-6.186-1.623-12.379-2.435-18.568
				c-0.176-1.343-0.357-2.703-0.862-3.961c-0.454-1.127-1.154-2.134-1.819-3.151c-3.962-6.059-8.762-14.531-8.388-21.997
				c0.104-2.074,0.771-4.331,2.543-5.414c6.782-4.145,9.396,9.174,12.287,12.187c0.597,0.622,1.733,1.042,2.228,0.336
				c0.189-0.27,0.206-0.621,0.215-0.951c0.024-0.834,0.047-1.668,0.07-2.502c0.024-0.845,0.056-1.724,0.454-2.47
				c0.397-0.746,1.278-1.307,2.084-1.055c0.688,0.215,1.104,0.947,1.193,1.662c0.208,1.664-0.166,3.377,0.059,5.077
				c0.268,2.023,0.897,4.047,0.597,6.066C154.677,269.962,155.276,273.883,156.763,277.755z"/>
			<path style="fill:#CAA7D9;" d="M283.664,352.732c1.858-0.47,3.744-0.834,5.651-1.082c9.637-1.255,24.292,0.734,29.32,10.228
				c2.218,4.188,2.888,9.013,3.193,13.742c1.548,24.015-5.378,47.763-6.355,71.808c-0.474,11.677,0.403,23.732-3.637,34.698
				c-6.796,18.446-24.035,18.36-40.379,22.191c-20.079,4.706-40.437,8.224-60.932,10.526c-5.206,0.585-10.453,1.091-15.675,0.677
				c-10.732-0.851-34.638-9.689-22.93-24.772c1.987-2.56,5.003-4.082,7.974-5.374c7.842-3.411,16.125-5.81,24.577-7.117
				c4.938-0.764,10.138-1.228,14.336-3.938c5.846-3.773,3.845-7.48,4.394-12.77c0.565-5.444,3.529-10.852,5.097-16.347
				c3.791-13.292,4.966-27.169,8.684-40.481c3.541-12.681,9.449-24.863,18.345-34.568
				C262.925,361.863,272.81,355.479,283.664,352.732z"/>
			<g id="XMLID_97_">
				<g id="XMLID_606_">
					<path id="XMLID_622_" style="fill:#FF735F;" d="M264.483,282.148c-0.064,0.515-0.132,1.029-0.205,1.542
						c-1.134,7.956,2.09,16.176,0.672,24.413c-1.005,5.834-5.73,17.491-12.851,18.388c-1.814,0.228-3.682-2.145-4.707-3.354
						c-3.392-3.999-6.147-8.734-6.819-13.934c-0.325-2.516-0.156-5.067,0.013-7.598c0.244-3.641,0.488-7.283,0.732-10.924
						c0.115-1.709,0.23-3.424,0.553-5.106c0.584-3.037,1.868-5.964,3.877-8.315c4.149-4.856,10.333-5.36,16.329-5.59
						c0.678-0.026,1.398-0.024,1.976,0.332c1.112,0.685,1.149,2.26,1.054,3.563C264.946,277.774,264.754,279.968,264.483,282.148z"
						/>
					<g id="XMLID_607_">
						<path id="XMLID_620_" style="fill:#FF735F;" d="M239.529,251.448c2.98-1.667,10.176,2.221,13.592,2.581
							c3.366,0.679,8.609,1.423,11.019,3.844c5.101,5.125,4.354,14.22,1.331,20.647c-0.506,1.076-1.547,3.813-2.16,4.832
							c-4.891,8.13-14.23,9.027-18.947,7.985c-5.636-1.245-8.772-5.865-9.85-12.398c-0.194-1.173-0.312-5.01-0.354-6.198
							C233.902,265.444,236.392,253.203,239.529,251.448z"/>
						<path id="XMLID_611_" style="fill:#151A36;" d="M233.999,237.192c1.7-0.691,3.636-0.802,5.396-0.278
							c2.184,0.651,4.061,2.27,5.025,4.336c1.175-0.964,2.849-1.188,4.318-0.799c1.469,0.389,2.747,1.329,3.768,2.454
							c0.146,0.161,0.304,0.336,0.517,0.379c0.129,0.026,0.261,0,0.39-0.024c6.02-1.105,11.712,2.947,14.124,8.279
							c2.672,5.908,1.575,12.797,0.718,18.982c-0.068,0.49-0.141,0.983-0.31,1.448c-1.783,4.907-5.643,1.552-6.618-1.849
							c-0.609-2.124-0.641-4.386-1.326-6.486c-1.555-4.767-6.826-8.232-11.747-7.147c-2.828,0.613-5.888,0.68-8.655-0.258
							c-2.732-0.927-5.195-2.916-7.37-4.746c-1.089-0.916-2.212-1.876-2.805-3.17c-0.593-1.294-0.491-3.024,0.62-3.913
							c-0.428-1.428-0.244-3.027,0.495-4.321c0.539-0.943,1.353-1.714,2.276-2.286C233.193,237.559,233.589,237.359,233.999,237.192
							z"/>
						<path id="XMLID_610_" style="fill:#151A36;" d="M233.856,267.386c0.016,0.001,0.032,0,0.048-0.002
							c0.393-0.048,0.662-0.416,0.836-0.771c0.796-1.63,0.877-3.805,0.966-5.591c0.044-0.881,0.09-1.777,0.386-2.608
							c0.295-0.831,0.881-1.604,1.709-1.909c0.648-0.239,1.398-0.181,1.993-0.533c1.007-0.596,1.412-2.542,1.338-3.624
							c-0.097-1.421-1.054-2.862-2.318-3.495c-1.647-0.825-3.905-0.217-4.815,1.385c-0.288,0.507-0.443,1.079-0.567,1.649
							c-0.763,3.5-0.477,7.132-0.188,10.702C233.299,263.301,233.013,267.344,233.856,267.386z"/>
						<path id="XMLID_12_" style="fill:#FF735F;" d="M262.902,276.035c1.424,1.969,4.066,2.601,5.834,0.682
							c0.806-0.875,1.165-2.073,1.346-3.249c0.161-1.047,0.198-2.139-0.125-3.148c-0.44-1.377-1.596-2.286-2.941-2.712
							C262.463,266.166,260.794,273.119,262.902,276.035z"/>
						<path id="XMLID_608_" style="fill:#FF735F;" d="M230.818,269.245c-0.231,1.312-0.397,2.711,0.228,3.874
							c0.736,1.369,2.407,2.011,3.961,1.992c0.185-0.002,0.387-0.019,0.524-0.144c0.117-0.108,0.16-0.272,0.196-0.427
							c0.503-2.168,0.521-4.163,0.534-6.395c0.003-0.522,0.001-1.066-0.233-1.533c-0.118-0.235-0.289-0.439-0.47-0.63
							c-0.544-0.573-1.245-1.07-2.035-1.089c-1.917-0.045-2.396,2.651-2.657,4.078C230.851,269.062,230.834,269.153,230.818,269.245
							z"/>
					</g>
				</g>
				<g id="XMLID_169_">
					<g id="XMLID_171_">
						<path style="fill:#151A36;" d="M271.804,411.759c-5.009-8.429-13.223-14.782-23.949-17.164
							c-10.958-2.434-24.599-0.646-30.261,12.356c-4.284,9.836-4.685,20.697-14.052,27.587
							c-11.346,8.346-28.02,12.883-40.973,18.584c-11.534,5.076-23.101,10.168-33.943,16.59
							c-22.321,13.221-40.966,31.693-61.161,47.978c-11.193,9.026-22.904,17.409-35.057,25.094
							c-2.117,1.339-4.548,3.295-4.063,5.753c0.335,1.699,1.964,2.781,3.464,3.646c17.964,10.353,37.947,17.188,58.489,20.005
							c1.75,0.24,3.574,0.445,5.251-0.111c1.282-0.426,2.378-1.265,3.445-2.094c19.996-15.533,39.004-32.338,56.872-50.278
							c16.442-16.511,46.006-16.743,67.487-25.48c18.517-7.532,36.743-19.606,47.022-36.93
							C279.62,441.711,279.316,424.4,271.804,411.759z"/>
					</g>
				</g>
				<g id="XMLID_562_">
					<g id="XMLID_572_">
						<path style="fill:#202752;" d="M287.839,458.934c-0.213-3.213-0.612-6.415-1.109-9.533
							c-2.236-14.006-5.13-29.889-11.38-42.598c-1.597-3.247-4.503-5.971-8.195-6.359c-3.826-0.402-7.686,1.691-11.582,2.314
							c-10.374,1.66-16.373,0.476-20.979,10.79c-4.735,10.602-2.686,22.915-7.702,32.975c-3.754,7.528-12.066,11.401-19.68,14.977
							c-12.019,5.644-23.752,11.895-35.142,18.72c-3.728,2.234-7.494,4.595-10.223,7.978c-3.736,4.632-5.135,10.669-6.391,16.485
							c-6.29,29.13-11.657,58.459-16.091,87.928c7.038-0.242,14.076-0.484,21.114-0.726c16.258-0.559,32.669-1.14,48.418-5.213
							c1.212-9.037,4.53-17.438,6.756-26.34c0.723-3.708,3.531-44.16,2.688-43.941c13.02-3.378,25.833-7.553,38.344-12.493
							c9.178-3.624,18.609-7.982,24.501-15.897C287.279,479.816,288.527,469.316,287.839,458.934z"/>
					</g>
				</g>
				<path style="fill:#589AD1;" d="M217.636,304.895c-2.964,0.169-5.923,0.364-8.892,0.808c-4.919,0.735-9.241,2.034-13.742,4.18
					c-0.221,0.105-0.456,0.223-0.574,0.438c-0.096,0.173-0.099,0.381-0.099,0.578c-0.018,7.185,1.095,14.296,1.889,21.473
					c0.214,1.937,3.049,23.064,3.741,22.934c3.061-0.599,12.177-2.204,15.295-2.139c1.677,0.033-2.568,29.116-2.52,31.324
					c0.133,6.227,0.075,12.456-0.064,18.682c-0.09,4.033-2.345,14.013-0.341,17.467c3.395,5.854,26.374,3.841,32.721,4.179
					c12.638,0.672,25.289,1.103,37.944,1.29c10.236-29.019,15.431-59.807,15.284-90.578c-0.06-12.605-0.817-29.713-15.643-31.615
					c-3.227-0.414-6.272-1.414-9.549-1.834c-2.539-0.325-5.167-0.356-7.631-0.948c-0.288,1.385-0.601,2.764-0.94,4.137
					c-0.394,1.597-1.259,2.86-2.027,4.118c-3.915,6.41-16.161,6.651-20.46-3.17c-0.633-1.445-1.409-3.673-1.411-3.678
					c-0.376-1.078-15.121,1.828-16.692,1.957C221.821,304.669,219.727,304.776,217.636,304.895z"/>
				<path style="fill:#FF735F;" d="M263.277,405.195c-1.493,6.536,0.496,10.848,7.119,10.732c6.298-0.11,13.194-0.444,17.87-4.664
					c7.642-6.896,8.637-22.473,11.17-31.879c1.713-6.36,5.384-10.154,5.955-17.09c0.465-5.65,0.118-12.638-3.97-17.029
					c-3.554-3.816-7.718-6.044-12.997-4.025c-3.303,1.263-5.995,3.738-8.346,6.38c-4.591,5.16-8.317,11.531-8.464,18.436
					c-0.133,6.235-0.008,10.341-1.784,16.439c-0.669,2.297-1.339,4.598-1.777,6.95c-0.283,1.516-0.468,3.051-0.828,4.551
					c-0.756,3.156-2.26,6.075-3.346,9.132C263.641,403.799,263.438,404.492,263.277,405.195z"/>
				<path style="fill:none;stroke:#151A36;stroke-width:0.5;stroke-miterlimit:10;" d="M247.747,263.112
					c-0.151,2.65-0.128,5.114-0.877,8.388c-0.024,0.107-0.024,0.223-0.079,0.318c-0.081,0.139-0.235,0.215-0.375,0.296
					c-0.404,0.236-0.756,0.611-0.836,1.072c-0.071,0.405,0.089,0.842,0.405,1.106c0.315,0.264,0.774,0.344,1.16,0.202"/>
				<g id="XMLID_73_">
					<path style="fill:#589AD1;" d="M277.422,335.947c-2.834,10.061-9.155,19.04-10.781,29.365
						c8.953,1.335,17.77,3.575,26.277,6.669c3.237,1.177,6.429,2.478,9.566,3.9c6.178-9.068,8.388-20.276,9.063-31.228
						c0.437-7.081,0.24-14.413-2.054-21.194c-2.244-6.635-5.138-11.508-11.705-14.294c-2.497-1.059-4.994-2.118-7.491-3.177
						c-2.314-0.982-4.884-1.978-7.273-1.196c-3.8,1.245-6.261,6.6-5.366,10.27C279.153,321.185,279.153,329.802,277.422,335.947z"/>
				</g>
				<path style="fill:#151A36;" d="M240.942,267.945c0.015,0.752-0.582,1.373-1.334,1.387c-0.751,0.015-1.373-0.582-1.387-1.334
					c-0.015-0.751,0.582-1.373,1.334-1.387C240.306,266.596,240.927,267.194,240.942,267.945z"/>
				<path style="fill:#151A36;" d="M255.936,269.011c0.015,0.752-0.582,1.373-1.334,1.388c-0.751,0.015-1.373-0.582-1.387-1.334
					s0.582-1.373,1.334-1.387C255.3,267.662,255.921,268.26,255.936,269.011z"/>
				<path style="fill:none;stroke:#151A36;stroke-width:0.5;stroke-miterlimit:10;" d="M257.095,267.211
					c-0.201-0.736-0.828-1.298-1.53-1.597c-0.702-0.299-1.477-0.37-2.239-0.408"/>
				<path style="fill:none;stroke:#151A36;stroke-width:0.5;stroke-miterlimit:10;" d="M238.161,264.902
					c1.425-0.702,3.278-0.41,4.418,0.696"/>
				<path style="fill:#D6604F;" d="M257.119,272.725c-0.16-0.127-0.337-0.231-0.522-0.303c-0.912-0.356-1.958-0.159-2.847,0.25
					c-0.332,0.153-0.658,0.34-0.897,0.616c-0.647,0.747-0.586,1.782,0.308,2.273c0.34,0.186,0.731,0.255,1.117,0.292
					c0.971,0.092,2.3,0.241,3.129-0.399C258.376,274.706,257.963,273.394,257.119,272.725z"/>
				<path style="fill:#D6604F;" d="M241.432,272.592c-0.161-0.127-0.337-0.231-0.522-0.303c-0.912-0.356-1.958-0.159-2.847,0.25
					c-0.332,0.153-0.658,0.34-0.897,0.616c-0.647,0.747-0.586,1.782,0.308,2.273c0.34,0.186,0.731,0.255,1.117,0.292
					c0.971,0.092,2.301,0.241,3.13-0.399C242.689,274.573,242.276,273.261,241.432,272.592z"/>
				<path style="fill:#FF735F;" d="M211.871,400.422c3.305-0.712,6.498,0.076,9.886,1.56c3.154,1.381,7.64,4.018,7.017,8.108
					c-0.215,1.414-1.713,2.206-3.047,2.722c-2.853,1.104-5.639,1.036-8.501,1.718c-2.256,0.538-4.576,0.918-6.883,1.151
					c-2.034,0.206-4.181,0.254-6.205-0.062c-1.514-0.236-4.806-0.141-5.748-1.45c-0.953-1.323,0.109-3.123,1.152-4.376
					c2.559-3.072,5.291-6.128,8.804-8.038C209.543,401.103,210.714,400.671,211.871,400.422z"/>
				<path style="fill:#FF735F;" d="M242.645,400.021c2.384-0.532,4.35-0.92,5.435-1.166c1.706-0.387,3.434-0.747,5.025-1.472
					c1.678-0.764,3.149-1.909,4.725-2.866c8.148-4.948,28.321-5.51,28.864,7.667c0.229,5.565-1.695,12.08-7.512,14.001
					c-4.73,1.562-9.841,1.306-14.815,1.034c-6.906-0.379-13.812-0.758-20.718-1.136c-5.1-0.28-20.055,2.331-21.628-5.223
					C220.898,405.476,234.322,401.876,242.645,400.021z"/>
			</g>
			<path style="fill:#151A36;" d="M258.859,283.015c0,1.505-1.22,2.725-2.725,2.725c-1.505,0-2.725-1.22-2.725-2.725
				s1.22-2.725,2.725-2.725C257.639,280.29,258.859,281.51,258.859,283.015z"/>
			<path style="fill:none;stroke:#151A36;stroke-miterlimit:10;" d="M262.024,267.413c0.615,5.494-1.386,11.224-5.287,15.142"/>
			<path style="fill:#75DDFF;" d="M268.666,264.757c-0.026-0.011-0.053-0.021-0.079-0.032c-2.416-0.952-3.564,0.611-4.657,2.581
				c-0.76,1.37-0.891,3.139-0.594,4.615c1.314,6.542,9.188,4.172,9.092-1.772C272.389,267.781,270.829,265.646,268.666,264.757z"/>
			<path style="fill:#75DDFF;" d="M233.313,263.747c-0.283-0.65-0.824-0.964-1.788-0.584c-1.095,0.432-1.924,1.507-2.38,2.713
				c-0.456,1.206-0.58,2.538-0.613,3.849c-0.013,0.531-0.011,1.071,0.125,1.581c0.265,0.993,2.308,3.48,3.395,2.977
				c0.993-0.459,1.066-4.605,1.246-5.784C233.486,267.259,233.832,264.939,233.313,263.747z"/>
			<g id="XMLID_71_">
				<path id="XMLID_88_" style="fill:#FFD1C8;" d="M168.922,418.285h88.069v-1.882c0-0.661-0.535-1.196-1.196-1.196h-86.873V418.285
					z"/>
				<path id="XMLID_87_" style="fill:#CAA7D9;" d="M153.791,415.207h88.005l-15.695-46.48c-0.539-1.597-2.141-2.685-3.954-2.685
					h-79.329c-2.793,0-4.785,2.499-3.954,4.959L153.791,415.207z"/>
				
					<rect id="XMLID_11_" x="153.791" y="415.207" transform="matrix(-1 -1.224647e-16 1.224647e-16 -1 396.009 833.4923)" style="fill:#FFFFFF;" width="88.427" height="3.078"/>
				<path style="fill:#FFFFFF;" d="M189.82,389.218c-2.33,0-2.595-3.19-0.81-3.934c-0.742-0.532-1.69-0.859-2.85-0.859
					c-6.434,0-6.445,10,0,10c3.452,0,5.053-2.878,4.802-5.547C190.661,389.086,190.283,389.218,189.82,389.218z"/>
			</g>
			<g>
				<path style="fill:#589AD1;" d="M128.675,257.776l39.463,0.067c1.809,0.003,3.277-1.461,3.281-3.269l0.039-23.14l-46.013-0.078
					l-0.039,23.14C125.402,256.304,126.866,257.773,128.675,257.776z"/>
				<polyline style="fill:none;stroke:#151A36;stroke-width:0.5;stroke-miterlimit:10;" points="125.157,231.06 148.829,244.202 
					171.666,231.324 				"/>
				<path style="fill:none;stroke:#151A36;stroke-width:0.5;stroke-miterlimit:10;" d="M130.22,248.906
					c3.009,0.068,6.018,0.135,9.027,0.203"/>
				<path style="fill:none;stroke:#151A36;stroke-width:0.5;stroke-miterlimit:10;" d="M130.151,251.4
					c3.1,0.157,6.199,0.314,9.299,0.472"/>
				<path style="fill:#202752;" d="M161.886,253.063c1.459,0.956,3.417,0.548,4.373-0.911s0.548-3.417-0.911-4.373
					c-1.459-0.956-3.417-0.548-4.373,0.911C160.019,250.15,160.427,252.107,161.886,253.063z"/>
			</g>
			<path style="fill:#FF735F;" d="M150.887,258.277c0.181-0.266,0.192-0.608,0.197-0.93c0.012-0.813,0.024-1.627,0.036-2.44
				c0.012-0.824,0.032-1.681,0.41-2.414c0.378-0.732,1.228-1.291,2.018-1.056c0.674,0.201,1.088,0.908,1.185,1.605
				c0.225,1.62-0.117,3.295,0.124,4.948c0.288,1.969,0.928,3.934,0.662,5.905"/>
			<path style="fill:none;stroke:#151A36;stroke-width:0.5;stroke-miterlimit:10;" d="M241.409,290.08
				c0.001,0.066-0.122,0.005-0.089-0.052c0.033-0.057,0.115-0.053,0.18-0.041c2.122,0.373,4.318,0.324,6.421-0.143"/>
			<path style="fill:none;stroke:#202752;stroke-miterlimit:10;" d="M272.349,365.704c-1.18-0.136-2.361-0.273-3.541-0.409
				c-0.276-0.032-0.574-0.074-0.77-0.271c-0.238-0.239-0.241-0.617-0.23-0.954c0.152-4.384,0.304-8.768,0.456-13.151"/>
			<path style="fill:none;stroke:#202752;stroke-miterlimit:10;" d="M175.061,322.744c-1.274,1.935-2.16,4.124-2.591,6.4"/>
			<path style="fill:none;stroke:#202752;stroke-miterlimit:10;" d="M268.38,390.768c0.599,1.845,1.198,3.69,1.796,5.536"/>
			<g>
				<g>
					<path style="fill:#87A345;" d="M339.423,376.986c-3.316-6.805-4.938-15.473-0.466-21.58c1.53-2.09,3.643-3.676,5.809-5.097
						c2.932-1.923,6.429-3.665,9.818-2.766c1.386,0.368,2.626,1.157,3.733,2.069c5.711,4.71,7.975,12.74,7.017,20.08
						c-0.958,7.34-4.742,14.049-9.365,19.831c-4.445,5.559-5.588,6.055-9.315,0.665
						C343.908,386.217,341.541,381.333,339.423,376.986z"/>
					<path style="fill:none;stroke:#151A36;stroke-width:0.5;stroke-miterlimit:10;" d="M354.643,393.151
						c0.73-6.979,1.41-13.992,1.082-21.001c-0.328-7.009-1.7-14.059-4.879-20.315c-4.005,6.043-4.593,13.778-3.649,20.966
						c0.635,4.832,1.9,9.544,3.07,14.265c0.533,2.149,1.01,4.311,1.617,6.434c0.265,0.929,0.2,4.391,0.583,4.816
						c-4.248-4.722-5.997-10.104-8.133-15.911c-2.264-6.156-4.094-11.513-2.679-18.23c1.229-5.835,4.501-11.219,9.115-14.998"/>
					<path style="fill:none;stroke:#151A36;stroke-width:0.5;stroke-miterlimit:10;" d="M352.04,350.182
						c6.108,2.651,9.157,9.813,9.237,16.471c0.075,6.173-2.003,11.842-3.354,17.77c-1.296,5.685-2.784,11.294-4.528,16.887"/>
					<g>
						<path style="fill:#589AD1;" d="M362.54,418.684h-19.899c-0.727,0-1.34-0.542-1.428-1.264l-3.138-25.598h28.577l-2.681,25.573
							C363.894,418.128,363.276,418.684,362.54,418.684z"/>
						<polygon style="fill:#589AD1;" points="368.366,393.537 336.932,393.537 335.218,386.678 369.509,386.678 						"/>
					</g>
				</g>
				
					<line style="fill:none;stroke:#202752;stroke-width:0.5;stroke-miterlimit:10;" x1="336.932" y1="394.537" x2="361.351" y2="394.283"/>
			</g>
			<path style="fill:none;stroke:#151A36;stroke-width:0.5;stroke-miterlimit:10;" d="M243.253,281.855
				c1.251,0.914,2.953,1.177,4.421,0.679c1.467-0.498,2.66-1.743,3.089-3.232"/>
			
				<line style="fill:none;stroke:#151A36;stroke-width:2;stroke-miterlimit:10;" x1="387.346" y1="419.684" x2="99.029" y2="419.684"/>
			<path style="fill:none;stroke:#151A36;stroke-miterlimit:10;" d="M269.487,270.025c0.937-4.609,1.879-9.306,1.388-13.983
				c-0.491-4.678-2.649-9.42-6.656-11.882c-4.286-2.633-9.756-2.207-14.666-1.115c-2.241,0.498-4.666,1.102-6.757,0.153"/>
			<path style="fill:#151A36;" d="M271.888,270.729c0,1.127-0.913,2.04-2.04,2.04s-2.04-0.913-2.04-2.04
				c0-1.126,0.913-2.04,2.04-2.04S271.888,269.603,271.888,270.729z"/>
		</g>
		<path style="clip-path:url(#SVGID_00000054229314036491792240000017149702456166845586_);fill:#FFFFFF;" d="M139.434,335.747
			l-10.857-10.408H70.812c-6.589,0-11.931-5.342-11.931-11.931l0,0c0-6.589,5.342-11.931,11.931-11.931h56.691
			c6.589,0,11.931,5.342,11.931,11.931V335.747z"/>
		<path style="clip-path:url(#SVGID_00000054229314036491792240000017149702456166845586_);fill:#589AD1;" d="M128.679,344.215
			c0,6.589-5.342,11.931-11.931,11.931H61.368H48.25l-11.688,12.819v-21.235c0-8.53,6.915-15.445,15.445-15.445h64.742
			C123.337,332.284,128.679,337.625,128.679,344.215L128.679,344.215z"/>
		
			<path style="clip-path:url(#SVGID_00000054229314036491792240000017149702456166845586_);fill:none;stroke:#202752;stroke-width:0.5;stroke-miterlimit:10;" d="
			M60.798,342.945c2.161-1.675,5.246-1.409,7.088,0.611l0,0c1.837,2.014,4.911,2.285,7.073,0.623l1.93-1.484
			c2.037-1.566,4.908-1.427,6.783,0.33l0.908,0.851c1.966,1.841,5.007,1.894,7.036,0.122l1.299-1.135
			c1.911-1.669,4.743-1.731,6.725-0.147l1.772,1.416c2.118,1.693,5.177,1.492,7.056-0.463"/>
		
			<path style="clip-path:url(#SVGID_00000054229314036491792240000017149702456166845586_);fill:none;stroke:#202752;stroke-width:0.5;stroke-miterlimit:10;" d="
			M76.243,312.375c2.161-1.675,5.246-1.409,7.088,0.611l0,0c1.837,2.014,4.911,2.285,7.073,0.623l1.93-1.484
			c2.037-1.566,4.908-1.427,6.783,0.33l0.908,0.851c1.966,1.841,5.007,1.894,7.036,0.122l1.299-1.135
			c1.911-1.669,4.743-1.731,6.725-0.147"/>
		<g style="clip-path:url(#SVGID_00000054229314036491792240000017149702456166845586_);">
			<g>
				<path style="fill:none;stroke:#110809;stroke-width:0.5;stroke-miterlimit:10;" d="M248.724,141.056
					c-2.149,0-3.891-1.742-3.891-3.891c0-2.149,1.742-3.892,3.891-3.892c0.135,0,0.263,0.026,0.395,0.04
					c-0.255-1.519-0.653-2.989-1.184-4.396c-0.116,0.085-0.223,0.179-0.351,0.252c-1.861,1.075-4.241,0.437-5.316-1.424
					c-1.075-1.861-0.437-4.241,1.424-5.316c0.125-0.072,0.257-0.117,0.386-0.174c-0.971-1.179-2.055-2.262-3.234-3.233
					c-0.061,0.142-0.111,0.286-0.19,0.423c-1.075,1.861-3.455,2.499-5.316,1.424c-1.861-1.075-2.499-3.455-1.424-5.316
					c0.08-0.139,0.181-0.257,0.275-0.382c-1.423-0.537-2.912-0.939-4.451-1.194c0.022,0.169,0.051,0.336,0.051,0.511
					c0,2.149-1.742,3.891-3.891,3.891s-3.891-1.742-3.891-3.891c0-0.179,0.029-0.351,0.053-0.523
					c-1.554,0.252-3.056,0.656-4.492,1.196c0.118,0.149,0.238,0.297,0.336,0.467c1.074,1.861,0.437,4.241-1.424,5.316
					c-1.861,1.075-4.241,0.437-5.316-1.424c-0.099-0.171-0.167-0.349-0.237-0.527c-1.21,0.992-2.319,2.102-3.311,3.312
					c0.191,0.073,0.382,0.149,0.564,0.254c1.861,1.075,2.499,3.455,1.424,5.316c-1.075,1.861-3.454,2.499-5.316,1.424
					c-0.181-0.105-0.341-0.231-0.499-0.359c-0.547,1.453-0.954,2.974-1.206,4.547c0.209-0.035,0.421-0.065,0.64-0.065
					c2.149,0,3.891,1.742,3.891,3.891s-1.742,3.892-3.891,3.892c-0.21,0-0.412-0.03-0.613-0.062
					c0.262,1.571,0.679,3.088,1.235,4.538c0.163-0.133,0.329-0.264,0.518-0.373c1.861-1.075,4.241-0.437,5.316,1.424
					c1.075,1.861,0.437,4.241-1.424,5.316c-0.175,0.101-0.358,0.172-0.541,0.244c0.999,1.203,2.117,2.303,3.333,3.287
					c0.072-0.185,0.144-0.37,0.246-0.547c1.075-1.861,3.454-2.499,5.316-1.424c1.861,1.075,2.499,3.454,1.424,5.316
					c-0.094,0.163-0.21,0.305-0.323,0.448c1.44,0.531,2.946,0.925,4.502,1.167c-0.026-0.181-0.055-0.362-0.055-0.55
					c0-2.149,1.742-3.891,3.891-3.891c2.149,0,3.891,1.742,3.891,3.891c0,0.166-0.029,0.324-0.049,0.484
					c1.536-0.264,3.022-0.676,4.441-1.223c-0.099-0.131-0.205-0.255-0.289-0.401c-1.075-1.861-0.437-4.241,1.424-5.316
					c1.861-1.075,4.241-0.437,5.316,1.424c0.074,0.128,0.121,0.264,0.179,0.397c1.172-0.978,2.247-2.068,3.211-3.253
					c-0.136-0.059-0.274-0.107-0.406-0.183c-1.861-1.075-2.499-3.454-1.424-5.316c1.075-1.861,3.455-2.499,5.316-1.424
					c0.121,0.07,0.222,0.159,0.332,0.239c0.521-1.41,0.91-2.883,1.155-4.405C249.005,141.029,248.868,141.056,248.724,141.056z
					 M225.865,153.111c-8.758,0-15.858-7.1-15.858-15.858c0-8.758,7.1-15.858,15.858-15.858c8.758,0,15.858,7.1,15.858,15.858
					C241.723,146.011,234.623,153.111,225.865,153.111z"/>
			</g>
			<g>
				<path style="fill:none;stroke:#110809;stroke-width:0.5;stroke-miterlimit:10;" d="M288.434,139.204
					c-1.744,0.284-3.387-0.899-3.671-2.643c-0.284-1.744,0.899-3.387,2.643-3.671c0.11-0.018,0.217-0.013,0.325-0.02
					c-0.408-1.199-0.925-2.339-1.541-3.41c-0.083,0.085-0.157,0.175-0.251,0.251c-1.368,1.118-3.383,0.915-4.501-0.453
					c-1.118-1.368-0.915-3.383,0.453-4.501c0.092-0.075,0.193-0.129,0.29-0.192c-0.944-0.828-1.966-1.563-3.051-2.195
					c-0.03,0.123-0.052,0.246-0.099,0.368c-0.626,1.652-2.473,2.484-4.124,1.858c-1.652-0.626-2.484-2.472-1.858-4.124
					c0.047-0.124,0.113-0.233,0.173-0.347c-1.225-0.248-2.486-0.377-3.768-0.38c0.041,0.134,0.086,0.266,0.109,0.408
					c0.284,1.744-0.899,3.387-2.643,3.671c-1.744,0.284-3.388-0.899-3.672-2.643c-0.024-0.145-0.023-0.288-0.026-0.431
					c-1.227,0.41-2.393,0.936-3.487,1.564c0.116,0.105,0.233,0.21,0.335,0.334c1.118,1.368,0.915,3.383-0.453,4.501
					c-1.368,1.118-3.383,0.915-4.501-0.453c-0.103-0.125-0.182-0.261-0.262-0.396c-0.851,0.965-1.604,2.011-2.248,3.124
					c0.165,0.034,0.329,0.07,0.491,0.132c1.652,0.626,2.484,2.473,1.858,4.125c-0.626,1.652-2.472,2.484-4.124,1.858
					c-0.161-0.061-0.307-0.143-0.452-0.226c-0.251,1.251-0.381,2.539-0.377,3.849c0.165-0.056,0.333-0.108,0.511-0.137
					c1.744-0.284,3.387,0.899,3.671,2.643c0.284,1.744-0.899,3.387-2.643,3.671c-0.17,0.028-0.338,0.03-0.505,0.031
					c0.42,1.24,0.959,2.416,1.602,3.518c0.114-0.13,0.232-0.258,0.371-0.371c1.368-1.118,3.383-0.915,4.501,0.453
					c1.118,1.368,0.915,3.383-0.453,4.501c-0.129,0.105-0.268,0.187-0.407,0.269c0.97,0.844,2.022,1.589,3.139,2.227
					c0.034-0.16,0.068-0.319,0.128-0.476c0.626-1.652,2.473-2.484,4.125-1.858c1.652,0.626,2.484,2.472,1.858,4.124
					c-0.055,0.145-0.13,0.275-0.203,0.406c1.238,0.24,2.512,0.361,3.807,0.352c-0.045-0.144-0.093-0.286-0.118-0.439
					c-0.284-1.744,0.899-3.387,2.643-3.672c1.744-0.284,3.387,0.899,3.671,2.643c0.022,0.135,0.02,0.266,0.024,0.399
					c1.212-0.418,2.362-0.948,3.442-1.579c-0.098-0.093-0.2-0.18-0.287-0.287c-1.118-1.368-0.915-3.383,0.453-4.501
					c1.368-1.118,3.383-0.915,4.501,0.453c0.077,0.094,0.133,0.198,0.198,0.299c0.822-0.948,1.55-1.975,2.175-3.064
					c-0.118-0.03-0.237-0.05-0.353-0.095c-1.652-0.626-2.484-2.472-1.858-4.125c0.626-1.652,2.473-2.484,4.125-1.858
					c0.107,0.041,0.201,0.1,0.301,0.15c0.237-1.212,0.357-2.459,0.354-3.727C288.659,139.144,288.552,139.184,288.434,139.204z
					 M271.482,152.005c-7.106,1.157-13.804-3.665-14.962-10.77c-1.157-7.106,3.665-13.804,10.77-14.962
					c7.106-1.157,13.804,3.665,14.962,10.771C283.409,144.149,278.587,150.848,271.482,152.005z"/>
			</g>
		</g>
	</g>
	<path style="fill:#FFE8C4;" d="M39.218,303.215c8.923,2.655,14.835-18.826,15.354-25.308c0.328-4.107-0.002-8.401-1.939-12.037
		c-1.938-3.636-5.743-6.473-9.862-6.361c-4.817,0.131-8.804,4.206-10.387,8.758c-2.135,6.137-2.83,24.944,1.503,30.638
		C35.76,301.366,37.542,302.716,39.218,303.215z"/>
	<path style="fill:#FFE8C4;" d="M461.538,291.4c0.881,0.241,1.823,0.303,2.825,0.138c3.515-0.578,4.257-4.868,4.961-7.902
		c0.972-4.19,0.313-8.844-2.437-12.25c-0.871-1.079-1.922-2.049-3.194-2.603c-5.062-2.203-10.642,3.627-10.434,9.144
		C453.434,282.566,456.439,290.003,461.538,291.4z"/>
	<path style="fill:#FFE8C4;" d="M445.682,249.702c0.657,3.198,4.417,5.893,7.226,4.231c1.098-0.65,1.805-1.797,2.329-2.96
		c1.545-3.426,1.687-7.88-0.948-10.56C448.75,234.78,444.817,245.492,445.682,249.702z"/>
	<path style="fill:#FFE8C4;" d="M331.02,116.831c2.156,11.605-11.954,7.306-17.09,5.097c-0.581-0.25-1.19-0.521-1.569-1.028
		c-0.251-0.337-0.378-0.749-0.47-1.159c-1.729-7.668,5.416-11.929,11.973-10.028C327.267,110.7,330.373,113.348,331.02,116.831z"/>
</g>
</svg>
